<svg xmlns="http://www.w3.org/2000/svg" width="72" height="71.97" viewBox="0 0 72 71.97">
  <defs>
    <style>
      .a {
        fill: #fff;
      }

      .b {
        fill: #3f51b5;
      }

      .c {
        fill: #f44336;
      }
    </style>
  </defs>
  <title>gbr_great_britain_72x72</title>
  <circle class="a" cx="35.98" cy="35.98" r="35.98"/>
  <path class="b" d="M2.11,47.95A35.91,35.91,0,0,0,8.57,59.24L19.86,47.95H2.11Z" transform="translate(0 -0.02)"/>
  <path class="b" d="M12.76,63.43A35.9,35.9,0,0,0,24.05,69.9V52.14Z" transform="translate(0 -0.02)"/>
  <path class="b" d="M59.26,8.55A35.9,35.9,0,0,0,48,2.1V19.83Z" transform="translate(0 -0.02)"/>
  <path class="b" d="M8.58,12.74A35.9,35.9,0,0,0,2.12,24H19.86Z" transform="translate(0 -0.02)"/>
  <path class="b" d="M69.92,24a35.9,35.9,0,0,0-6.47-11.28L52.17,24H69.92Z" transform="translate(0 -0.02)"/>
  <path class="b" d="M52.17,47.95L63.46,59.24a35.91,35.91,0,0,0,6.46-11.29H52.17Z" transform="translate(0 -0.02)"/>
  <path class="b" d="M24.05,2.1A35.91,35.91,0,0,0,12.77,8.55L24.05,19.83V2.1Z" transform="translate(0 -0.02)"/>
  <path class="b" d="M48,69.9a35.9,35.9,0,0,0,11.29-6.47L48,52.14V69.9Z" transform="translate(0 -0.02)"/>
  <path class="a" d="M69.93,47.95a35.44,35.44,0,0,0,0-23.93H52.17L63.45,12.74a36.18,36.18,0,0,0-4.19-4.19L48,19.83V2.1a35.45,35.45,0,0,0-23.93,0V19.83L12.77,8.55a36.18,36.18,0,0,0-4.19,4.19L19.86,24H2.12a35.45,35.45,0,0,0,0,23.93H19.86L8.57,59.24a36.16,36.16,0,0,0,4.19,4.19L24.05,52.14V69.9A35.44,35.44,0,0,0,48,69.9V52.14L59.27,63.43a36.19,36.19,0,0,0,4.19-4.19L52.17,47.95H69.93Z" transform="translate(0 -0.02)"/>
  <path class="c" d="M71.46,30H42V0.52a35.72,35.72,0,0,0-12,0V30H0.51a35.71,35.71,0,0,0,0,12H30V71.48a35.72,35.72,0,0,0,12,0V42H71.46A35.73,35.73,0,0,0,71.46,30Z" transform="translate(0 -0.02)"/>
</svg>