<svg xmlns="http://www.w3.org/2000/svg" width="72" height="72" viewBox="0 0 72 72">
  <defs>
    <style>
      .a {
        fill: #f44336;
      }

      .b {
        fill: #fff;
      }

      .c {
        fill: #3f51b5;
      }
    </style>
  </defs>
  <title>usa_united_states_of_america_72x72</title>
  <path class="a" d="M48,12H62.83A36.18,36.18,0,0,0,55.9,6H48v6Z" transform="translate(0 0)"/>
  <path class="a" d="M48,36H72a36.2,36.2,0,0,0-.51-6H48v6Z" transform="translate(0 0)"/>
  <path class="a" d="M48,24H69.94a35.79,35.79,0,0,0-2.77-6H48v6Z" transform="translate(0 0)"/>
  <path class="a" d="M16.11,66a35.92,35.92,0,0,0,39.78,0H16.11Z" transform="translate(0 0)"/>
  <path class="a" d="M48,42H0.51a35.76,35.76,0,0,0,1.55,6H69.94a35.73,35.73,0,0,0,1.55-6H48Z" transform="translate(0 0)"/>
  <path class="b" d="M55.9,6A35.86,35.86,0,0,0,48,2.06V6h7.9Z" transform="translate(0 0)"/>
  <path class="b" d="M48,30H71.49a35.76,35.76,0,0,0-1.55-6H48v6Z" transform="translate(0 0)"/>
  <path class="b" d="M48,36H0a36.21,36.21,0,0,0,.51,6h71A36.2,36.2,0,0,0,72,36H48Z" transform="translate(0 0)"/>
  <path class="b" d="M48,12v6H67.17a36.11,36.11,0,0,0-4.35-6H48Z" transform="translate(0 0)"/>
  <path class="b" d="M48,60H9.17a36.23,36.23,0,0,0,6.93,6H55.88a36.16,36.16,0,0,0,6.94-6H48Z" transform="translate(0 0)"/>
  <path class="b" d="M48,48H2.06a35.81,35.81,0,0,0,2.77,6H67.17a35.81,35.81,0,0,0,2.77-6H48Z" transform="translate(0 0)"/>
  <path class="a" d="M4.83,54a36.11,36.11,0,0,0,4.35,6H62.83a36.11,36.11,0,0,0,4.35-6H4.83Z" transform="translate(0 0)"/>
  <path class="c" d="M48,2.06A36,36,0,0,0,0,36H48V2.06Z" transform="translate(0 0)"/>
  <path class="b" d="M38.95,24.33c0.25-.77.66-0.77,0.91,0l0.07,0.23A2.17,2.17,0,0,0,41.87,26H42.1c0.81,0,.94.39,0.28,0.87L42.19,27a2.17,2.17,0,0,0-.74,2.27l0.07,0.23c0.25,0.77-.08,1-0.74.54l-0.19-.14a2.17,2.17,0,0,0-2.39,0L38,30c-0.66.48-1,.24-0.74-0.54l0.07-.23A2.17,2.17,0,0,0,36.61,27l-0.19-.14c-0.66-.48-0.53-0.87.28-0.87h0.24a2.17,2.17,0,0,0,1.93-1.4Z" transform="translate(0 0)"/>
  <path class="b" d="M24.67,24.33c0.25-.77.66-0.77,0.91,0l0.07,0.23A2.17,2.17,0,0,0,27.59,26h0.24c0.81,0,.94.39,0.28,0.87L27.92,27a2.17,2.17,0,0,0-.74,2.27l0.07,0.23c0.25,0.77-.08,1-0.74.54l-0.19-.14a2.17,2.17,0,0,0-2.39,0L23.74,30c-0.66.48-1,.24-0.74-0.54l0.07-.23A2.17,2.17,0,0,0,22.33,27l-0.19-.14c-0.66-.48-0.53-0.87.28-0.87h0.24a2.17,2.17,0,0,0,1.93-1.4Z" transform="translate(0 0)"/>
  <path class="b" d="M10.39,24.33c0.25-.77.66-0.77,0.91,0l0.07,0.23A2.17,2.17,0,0,0,13.31,26h0.24c0.81,0,.94.39,0.28,0.87L13.64,27a2.17,2.17,0,0,0-.74,2.27L13,29.47c0.25,0.77-.08,1-0.74.54L12,29.86a2.17,2.17,0,0,0-2.39,0L9.46,30c-0.66.48-1,.24-0.74-0.54l0.07-.23A2.17,2.17,0,0,0,8.06,27l-0.19-.14C7.21,26.35,7.33,26,8.15,26H8.38a2.17,2.17,0,0,0,1.93-1.4Z" transform="translate(0 0)"/>
  <path class="b" d="M38.95,7.64c0.25-.77.66-0.77,0.91,0l0.07,0.23a2.17,2.17,0,0,0,1.93,1.4H42.1c0.81,0,.94.39,0.28,0.87l-0.19.14a2.17,2.17,0,0,0-.74,2.27l0.07,0.23c0.25,0.77-.08,1-0.74.54l-0.19-.14a2.17,2.17,0,0,0-2.39,0L38,13.32c-0.66.48-1,.24-0.74-0.54l0.07-.23a2.17,2.17,0,0,0-.74-2.27l-0.19-.14c-0.66-.48-0.53-0.87.28-0.87h0.24a2.17,2.17,0,0,0,1.93-1.4Z" transform="translate(0 0)"/>
  <path class="b" d="M24.67,7.64c0.25-.77.66-0.77,0.91,0l0.07,0.23a2.17,2.17,0,0,0,1.93,1.4h0.24c0.81,0,.94.39,0.28,0.87l-0.19.14a2.17,2.17,0,0,0-.74,2.27l0.07,0.23c0.25,0.77-.08,1-0.74.54l-0.19-.14a2.17,2.17,0,0,0-2.39,0l-0.19.14c-0.66.48-1,.24-0.74-0.54l0.07-.23a2.17,2.17,0,0,0-.74-2.27l-0.19-.14c-0.66-.48-0.53-0.87.28-0.87h0.24a2.17,2.17,0,0,0,1.93-1.4Z" transform="translate(0 0)"/>
  <path class="b" d="M31.5,15.58c0.25-.77.66-0.77,0.91,0l0.07,0.23a2.17,2.17,0,0,0,1.93,1.4h0.24c0.81,0,.94.39,0.28,0.87l-0.19.14A2.17,2.17,0,0,0,34,20.49l0.07,0.23c0.25,0.77-.08,1-0.74.54l-0.19-.14a2.17,2.17,0,0,0-2.39,0l-0.19.14c-0.66.48-1,.24-0.74-0.54l0.07-.23a2.17,2.17,0,0,0-.74-2.27L29,18.08c-0.66-.48-0.53-0.87.28-0.87H29.5a2.17,2.17,0,0,0,1.93-1.4Z" transform="translate(0 0)"/>
  <path class="b" d="M17.23,15.58c0.25-.77.66-0.77,0.91,0l0.07,0.23a2.17,2.17,0,0,0,1.93,1.4h0.24c0.81,0,.94.39,0.28,0.87l-0.19.14a2.17,2.17,0,0,0-.74,2.27l0.07,0.23c0.25,0.77-.08,1-0.74.54l-0.19-.14a2.17,2.17,0,0,0-2.39,0l-0.19.14c-0.66.48-1,.24-0.74-0.54l0.07-.23a2.17,2.17,0,0,0-.74-2.27l-0.19-.14c-0.66-.48-0.53-0.87.28-0.87h0.24a2.17,2.17,0,0,0,1.93-1.4Z" transform="translate(0 0)"/>
</svg>